<?xml version="1.0" encoding="UTF-8"?>
<svg id="Layer_1" data-name="Layer 1" xmlns="http://www.w3.org/2000/svg" width="20" height="21" viewBox="0 0 20 21">
  <path d="M7.09,9.77c2.01,0,3.64-1.63,3.64-3.64s-1.63-3.64-3.64-3.64-3.64,1.63-3.64,3.64,1.63,3.64,3.64,3.64ZM10.74,11.24c-.91-.92-2.19-1.47-3.65-1.47-2.91,0-5.09,2.18-5.09,5.09v3.64h5.09M8.55,15.95c0,1,.82,1.82,1.82,1.82,1,0,1.82-.82,1.82-1.82s-.82-1.82-1.82-1.82c-1,0-1.82.82-1.82,1.82h0ZM18,12.68l-2.18-2.18-4.36,4.36M14,12.32l2.18,2.18-2.18-2.18Z" fill="none" stroke="#26a5ff" stroke-miterlimit="2" stroke-width="2"/>
</svg>