<svg xmlns="http://www.w3.org/2000/svg" width="20" height="20" viewBox="0 0 20 20" fill="none">
  <path d="M14.1338 5.1416C15.8005 6.29993 16.9505 8.1416 17.1838 10.2666" stroke="#26A5FF" stroke-width="1.5" stroke-linecap="round" stroke-linejoin="round"/>
  <path d="M2.9082 10.3083C3.12487 8.19168 4.2582 6.35002 5.9082 5.18335" stroke="#26A5FF" stroke-width="1.5" stroke-linecap="round" stroke-linejoin="round"/>
  <path d="M6.8252 17.45C7.79186 17.9416 8.89186 18.2166 10.0502 18.2166C11.1669 18.2166 12.2169 17.9666 13.1585 17.5083" stroke="#26A5FF" stroke-width="1.5" stroke-linecap="round" stroke-linejoin="round"/>
  <path d="M10.0501 6.41678C11.3295 6.41678 12.3667 5.37957 12.3667 4.10011C12.3667 2.82065 11.3295 1.78345 10.0501 1.78345C8.77061 1.78345 7.7334 2.82065 7.7334 4.10011C7.7334 5.37957 8.77061 6.41678 10.0501 6.41678Z" stroke="#26A5FF" stroke-width="1.5" stroke-linecap="round" stroke-linejoin="round"/>
  <path d="M4.02467 16.5999C5.30413 16.5999 6.34134 15.5627 6.34134 14.2832C6.34134 13.0038 5.30413 11.9666 4.02467 11.9666C2.74521 11.9666 1.70801 13.0038 1.70801 14.2832C1.70801 15.5627 2.74521 16.5999 4.02467 16.5999Z" stroke="#26A5FF" stroke-width="1.5" stroke-linecap="round" stroke-linejoin="round"/>
  <path d="M15.9749 16.5999C17.2543 16.5999 18.2915 15.5627 18.2915 14.2832C18.2915 13.0038 17.2543 11.9666 15.9749 11.9666C14.6954 11.9666 13.6582 13.0038 13.6582 14.2832C13.6582 15.5627 14.6954 16.5999 15.9749 16.5999Z" stroke="#26A5FF" stroke-width="1.5" stroke-linecap="round" stroke-linejoin="round"/>
</svg>