<svg xmlns="http://www.w3.org/2000/svg" width="20" height="20" viewBox="0 0 20 20" fill="none">
  <path d="M15.033 11.0472C14.683 11.3689 14.483 11.8318 14.533 12.3261C14.608 13.1736 15.433 13.7934 16.333 13.7934H17.9163V14.7271C17.9163 16.3513 16.508 17.6773 14.783 17.6773H5.21634C3.49134 17.6773 2.08301 16.3513 2.08301 14.7271V9.44656C2.08301 7.82237 3.49134 6.49634 5.21634 6.49634H14.783C16.508 6.49634 17.9163 7.82237 17.9163 9.44656V10.5764H16.233C15.7663 10.5764 15.3413 10.749 15.033 11.0472Z" stroke="white" stroke-width="1.5" stroke-linecap="round" stroke-linejoin="round"/>
  <path d="M2.08301 10.1527V6.56702C2.08301 5.63331 2.69134 4.80156 3.61634 4.47202L10.233 2.11812C11.2663 1.74934 12.3747 2.47123 12.3747 3.51479V6.49638" stroke="white" stroke-width="1.5" stroke-linecap="round" stroke-linejoin="round"/>
  <path d="M18.7987 11.377V12.9933C18.7987 13.4249 18.432 13.7779 17.9654 13.7936H16.332C15.432 13.7936 14.607 13.1738 14.532 12.3264C14.482 11.8321 14.682 11.3691 15.032 11.0474C15.3404 10.7493 15.7654 10.5767 16.232 10.5767H17.9654C18.432 10.5924 18.7987 10.9454 18.7987 11.377Z" stroke="white" stroke-width="1.5" stroke-linecap="round" stroke-linejoin="round"/>
  <path d="M5.83301 9.83105H11.6663" stroke="white" stroke-width="1.5" stroke-linecap="round" stroke-linejoin="round"/>
</svg>