<svg xmlns="http://www.w3.org/2000/svg" width="20" height="21" viewBox="0 0 20 21" fill="none">
  <path d="M14.167 9.24748H15.8337C17.5003 9.24748 18.3337 8.41414 18.3337 6.74748V5.08081C18.3337 3.41414 17.5003 2.58081 15.8337 2.58081H14.167C12.5003 2.58081 11.667 3.41414 11.667 5.08081V6.74748C11.667 8.41414 12.5003 9.24748 14.167 9.24748Z" stroke="white" stroke-width="2" stroke-miterlimit="10" stroke-linecap="round" stroke-linejoin="round"/>
  <path d="M4.16699 19.2475H5.83366C7.50033 19.2475 8.33366 18.4141 8.33366 16.7475V15.0808C8.33366 13.4141 7.50033 12.5808 5.83366 12.5808H4.16699C2.50033 12.5808 1.66699 13.4141 1.66699 15.0808V16.7475C1.66699 18.4141 2.50033 19.2475 4.16699 19.2475Z" stroke="white" stroke-width="2" stroke-miterlimit="10" stroke-linecap="round" stroke-linejoin="round"/>
  <path d="M5.00033 9.24748C6.84127 9.24748 8.33366 7.75509 8.33366 5.91414C8.33366 4.07319 6.84127 2.58081 5.00033 2.58081C3.15938 2.58081 1.66699 4.07319 1.66699 5.91414C1.66699 7.75509 3.15938 9.24748 5.00033 9.24748Z" stroke="white" stroke-width="2" stroke-miterlimit="10" stroke-linecap="round" stroke-linejoin="round"/>
  <path d="M15.0003 19.2475C16.8413 19.2475 18.3337 17.7551 18.3337 15.9141C18.3337 14.0732 16.8413 12.5808 15.0003 12.5808C13.1594 12.5808 11.667 14.0732 11.667 15.9141C11.667 17.7551 13.1594 19.2475 15.0003 19.2475Z" stroke="white" stroke-width="2" stroke-miterlimit="10" stroke-linecap="round" stroke-linejoin="round"/>
</svg>