<svg width="16" height="18" viewBox="0 0 16 18" fill="none" xmlns="http://www.w3.org/2000/svg">
    <path fill-rule="evenodd" clip-rule="evenodd" d="M2.39159 6.42578C2.39159 3.32227 4.91308 0.800781 8.01659 0.800781C11.1118 0.800781 13.6416 3.3306 13.6416 6.42578V8.83412C13.6416 9.01317 13.6821 9.27524 13.7589 9.55527C13.8348 9.83191 13.9328 10.0778 14.022 10.2339L14.9775 11.8209C15.7322 13.0786 15.1289 14.717 13.7387 15.1772C10.0188 16.4199 6.0051 16.4197 2.28521 15.1769L2.28289 15.1761C1.58088 14.9385 1.05442 14.4473 0.819026 13.8116C0.583363 13.1751 0.663531 12.4587 1.04773 11.8202L2.00475 10.2307C2.00496 10.2304 2.00517 10.23 2.00539 10.2297C2.09664 10.0763 2.1966 9.83129 2.27374 9.5534C2.35112 9.27467 2.39159 9.01298 2.39159 8.83412V6.42578ZM8.01659 2.05078C5.60344 2.05078 3.64159 4.01263 3.64159 6.42578V8.83412C3.64159 9.16358 3.57374 9.54356 3.4782 9.88775C3.3826 10.2321 3.24534 10.5908 3.07844 10.8708L3.07704 10.8732L2.11879 12.4647C2.11876 12.4647 2.11882 12.4646 2.11879 12.4647C1.91142 12.8094 1.89984 13.1307 1.99125 13.3775C2.08285 13.6249 2.30188 13.8626 2.68252 13.9917C6.1453 15.1484 9.88082 15.1482 13.3435 13.9913L13.3454 13.9907C13.9711 13.7839 14.2507 13.0397 13.9059 12.4645C13.9058 12.4643 13.906 12.4646 13.9059 12.4645L12.9418 10.8632C12.7817 10.5857 12.6477 10.2294 12.5534 9.88587C12.4594 9.54299 12.3916 9.1634 12.3916 8.83412V6.42578C12.3916 4.02096 10.4214 2.05078 8.01659 2.05078Z" fill="white"/>
    <path fill-rule="evenodd" clip-rule="evenodd" d="M5.8932 1.43914C6.22607 0.589741 7.05249 -0.0078125 8.01678 -0.0078125C8.98106 -0.0078125 9.80748 0.589741 10.1404 1.43914C10.2272 1.66087 10.1806 1.91271 10.02 2.08858C9.85945 2.26446 9.61289 2.3338 9.38419 2.2674C9.15301 2.20029 8.9197 2.14964 8.68324 2.12098L8.68092 2.12069C7.96058 2.03065 7.27994 2.0841 6.64957 2.26734C6.42086 2.33383 6.17423 2.26454 6.01361 2.08866C5.85299 1.91279 5.80629 1.66091 5.8932 1.43914Z" fill="white"/>
    <path fill-rule="evenodd" clip-rule="evenodd" d="M6.1416 14.8848C6.1416 15.3952 6.35394 15.8716 6.69188 16.2095C7.02981 16.5474 7.50617 16.7598 8.0166 16.7598C9.04642 16.7598 9.8916 15.9146 9.8916 14.8848H11.1416C11.1416 16.6049 9.73678 18.0098 8.0166 18.0098C7.16037 18.0098 6.37005 17.6554 5.80799 17.0934C5.24593 16.5313 4.8916 15.741 4.8916 14.8848H6.1416Z" fill="white"/>
</svg>