<svg width="19" height="18" viewBox="0 0 19 18" fill="none" xmlns="http://www.w3.org/2000/svg">
<path d="M5.79639 8.40078C5.79639 6.70372 5.79639 5.8552 6.32359 5.32799C6.8508 4.80078 7.69933 4.80078 9.39639 4.80078H11.1964C12.8934 4.80078 13.742 4.80078 14.2692 5.32799C14.7964 5.8552 14.7964 6.70372 14.7964 8.40078V11.4008C14.7964 13.0978 14.7964 13.9464 14.2692 14.4736C13.742 15.0008 12.8934 15.0008 11.1964 15.0008H9.39639C7.69933 15.0008 6.8508 15.0008 6.32359 14.4736C5.79639 13.9464 5.79639 13.0978 5.79639 11.4008V8.40078Z" stroke="white" strokeWidth="1.5"/>
<path d="M5.79658 13.2C4.80247 13.2 3.99658 12.3941 3.99658 11.4V7.8C3.99658 5.53726 3.99658 4.40589 4.69953 3.70294C5.40247 3 6.53384 3 8.79658 3H11.1966C12.1907 3 12.9966 3.80589 12.9966 4.8" stroke="white" strokeWidth="1.5"/>
</svg>
