<svg xmlns="http://www.w3.org/2000/svg" width="28" height="28" viewBox="0 0 28 28" fill="none">
  <path d="M26.88 0H1.12C0.5005 0 0 0.5005 0 1.12V26.88C0 27.4995 0.5005 28 1.12 28H26.88C27.4995 28 28 27.4995 28 26.88V1.12C28 0.5005 27.4995 0 26.88 0ZM23.646 8.1725H21.4095C19.656 8.1725 19.3165 9.0055 19.3165 10.2305V12.929H23.5025L22.9565 17.1535H19.3165V28H14.952V17.157H11.3015V12.929H14.952V9.814C14.952 6.1985 17.1605 4.228 20.3875 4.228C21.9345 4.228 23.261 4.3435 23.6495 4.396V8.1725H23.646Z" fill="#DBDBDB"/>
</svg>