<svg xmlns="http://www.w3.org/2000/svg" width="28" height="28" viewBox="0 0 28 28" fill="none">
  <path d="M25.7606 0H2.3925C1.11562 0 0 0.918749 0 2.18062V25.6006C0 26.8693 1.11562 28 2.3925 28H25.7537C27.0375 28 28 26.8618 28 25.6006V2.18062C28.0075 0.918749 27.0375 0 25.7606 0ZM8.67936 23.3393H4.66812V10.8675H8.67936V23.3393ZM6.81249 8.97124H6.78374C5.49999 8.97124 4.66874 8.01561 4.66874 6.81936C4.66874 5.60124 5.52187 4.66812 6.83436 4.66812C8.14686 4.66812 8.94999 5.59437 8.97874 6.81936C8.97811 8.01561 8.14686 8.97124 6.81249 8.97124ZM23.3393 23.3393H19.3281V16.52C19.3281 14.8862 18.7443 13.77 17.2931 13.77C16.1844 13.77 15.5281 14.52 15.2362 15.2506C15.1269 15.5131 15.0975 15.8706 15.0975 16.2356V23.3393H11.0862V10.8675H15.0975V12.6031C15.6812 11.7719 16.5931 10.5756 18.715 10.5756C21.3481 10.5756 23.34 12.3112 23.34 16.0531L23.3393 23.3393Z" fill="#DBDBDB"/>
</svg>