<svg xmlns="http://www.w3.org/2000/svg" width="20" height="20" viewBox="0 0 20 20" fill="none">
  <circle cx="10" cy="10" r="10" fill="#929292"/>
  <path d="M13.5985 8.92768L14.0199 8.50631C14.3551 8.17112 14.5434 7.71649 14.5434 7.24245C14.5434 6.76841 14.3551 6.31379 14.0199 5.97859C13.6847 5.64339 13.23 5.45508 12.756 5.45508C12.282 5.45508 11.8273 5.64339 11.4921 5.97859L11.0708 6.39995L7.19715 10.2727C6.93487 10.5354 6.80351 10.6668 6.69078 10.8113C6.55765 10.9819 6.44349 11.1665 6.35033 11.3618C6.27169 11.5272 6.21306 11.7036 6.09578 12.0554L5.59851 13.5468M13.5985 8.92768C13.5985 8.92768 12.7035 8.87495 11.9135 8.08495C11.1235 7.29541 11.0712 6.39995 11.0712 6.39995M13.5985 8.92768L9.72533 12.8004C9.46305 13.0627 9.33169 13.194 9.18715 13.3068C9.01657 13.4399 8.832 13.5541 8.63669 13.6472C8.47124 13.7259 8.29533 13.7845 7.94306 13.9018L6.45169 14.399M6.45169 14.399L6.08715 14.5209C6.00217 14.5494 5.91093 14.5536 5.82369 14.5331C5.73644 14.5126 5.65664 14.4681 5.59327 14.4047C5.52989 14.3414 5.48545 14.2616 5.46494 14.1743C5.44443 14.0871 5.44865 13.9958 5.47715 13.9109L5.59896 13.5463L6.45169 14.399Z" stroke="white" stroke-width="0.833333"/>
</svg>