<svg xmlns="http://www.w3.org/2000/svg" width="20" height="20" viewBox="0 0 20 20" fill="none">
  <circle cx="10" cy="10" r="10" fill="#26A5FF"/>
  <path d="M6.625 5.8125C6.40951 5.8125 6.20285 5.8981 6.05048 6.05048C5.8981 6.20285 5.8125 6.40951 5.8125 6.625V13.125C5.8125 13.3405 5.8981 13.5472 6.05048 13.6995C6.20285 13.8519 6.40951 13.9375 6.625 13.9375V11.0938C6.625 10.7705 6.7534 10.4605 6.98196 10.232C7.21052 10.0034 7.52052 9.875 7.84375 9.875H11.9062C12.2295 9.875 12.5395 10.0034 12.768 10.232C12.9966 10.4605 13.125 10.7705 13.125 11.0938V13.9375C13.3405 13.9375 13.5472 13.8519 13.6995 13.6995C13.8519 13.5472 13.9375 13.3405 13.9375 13.125V7.94206C13.9375 7.72659 13.8518 7.51996 13.6994 7.36762L12.3824 6.05056C12.23 5.89818 12.0234 5.81255 11.8079 5.8125H11.5V7.03125C11.5 7.35448 11.3716 7.66448 11.143 7.89304C10.9145 8.1216 10.6045 8.25 10.2812 8.25H8.65625C8.33302 8.25 8.02302 8.1216 7.79446 7.89304C7.5659 7.66448 7.4375 7.35448 7.4375 7.03125V5.8125H6.625ZM8.25 5.8125V7.03125C8.25 7.13899 8.2928 7.24233 8.36899 7.31851C8.44517 7.3947 8.54851 7.4375 8.65625 7.4375H10.2812C10.389 7.4375 10.4923 7.3947 10.5685 7.31851C10.6447 7.24233 10.6875 7.13899 10.6875 7.03125V5.8125H8.25ZM12.3125 13.9375V11.0938C12.3125 10.986 12.2697 10.8827 12.1935 10.8065C12.1173 10.7303 12.014 10.6875 11.9062 10.6875H7.84375C7.73601 10.6875 7.63267 10.7303 7.55649 10.8065C7.4803 10.8827 7.4375 10.986 7.4375 11.0938V13.9375H12.3125ZM5 6.625C5 6.19402 5.1712 5.7807 5.47595 5.47595C5.7807 5.1712 6.19402 5 6.625 5H11.8079C12.2389 5.00009 12.6521 5.17136 12.9568 5.47612L14.2739 6.79319C14.5786 7.09786 14.7499 7.51112 14.75 7.94206V13.125C14.75 13.556 14.5788 13.9693 14.274 14.274C13.9693 14.5788 13.556 14.75 13.125 14.75H6.625C6.19402 14.75 5.7807 14.5788 5.47595 14.274C5.1712 13.9693 5 13.556 5 13.125V6.625Z" fill="white"/>
</svg>