<svg width="322" height="145" viewBox="0 0 322 145" fill="none" xmlns="http://www.w3.org/2000/svg">
<path d="M148.215 98.3934L148.116 98.3934C147.961 98.3933 147.812 98.3314 147.703 98.2214C147.593 98.1113 147.531 97.9621 147.531 97.8065C147.531 97.651 147.593 97.5018 147.703 97.3919C147.813 97.2819 147.962 97.2202 148.117 97.2202H148.118L148.215 97.2203C149.341 97.2203 150.482 97.1967 151.605 97.15C151.76 97.1436 151.911 97.1991 152.025 97.3045C152.14 97.4098 152.207 97.5563 152.214 97.7118C152.22 97.8672 152.165 98.0188 152.06 98.1333C151.955 98.2477 151.808 98.3157 151.653 98.3221C150.514 98.3694 149.357 98.3934 148.215 98.3934ZM143.437 98.2555C143.425 98.2555 143.414 98.2552 143.402 98.2545C142.231 98.187 141.045 98.0935 139.876 97.9765C139.722 97.961 139.58 97.8847 139.481 97.7643C139.383 97.6439 139.337 97.4894 139.352 97.3346C139.367 97.1799 139.443 97.0376 139.564 96.9391C139.684 96.8406 139.838 96.7938 139.992 96.8092C141.145 96.9245 142.315 97.0168 143.47 97.0834C143.622 97.0921 143.764 97.16 143.867 97.2724C143.97 97.3848 144.025 97.533 144.021 97.6855C144.017 97.838 143.953 97.9829 143.844 98.0893C143.735 98.1957 143.589 98.2553 143.437 98.2555ZM156.3 97.9935C156.15 97.9934 156.005 97.9354 155.896 97.8315C155.788 97.7277 155.723 97.586 155.716 97.4357C155.708 97.2854 155.759 97.138 155.857 97.024C155.955 96.91 156.093 96.8381 156.243 96.8232C157.397 96.7083 158.561 96.5664 159.704 96.4015C159.858 96.3795 160.014 96.4194 160.138 96.5127C160.262 96.6059 160.344 96.7447 160.367 96.8986C160.389 97.0525 160.349 97.2089 160.256 97.3335C160.163 97.458 160.024 97.5405 159.871 97.5627C158.711 97.73 157.529 97.874 156.358 97.9906C156.339 97.9926 156.319 97.9935 156.3 97.9935ZM135.29 97.3831C135.259 97.3831 135.229 97.3807 135.198 97.3759C134.038 97.1939 132.867 96.9847 131.716 96.7541C131.641 96.739 131.569 96.7092 131.505 96.6664C131.441 96.6235 131.386 96.5685 131.344 96.5044C131.301 96.4403 131.271 96.3684 131.256 96.2928C131.242 96.2172 131.242 96.1394 131.257 96.0638C131.272 95.9883 131.302 95.9165 131.344 95.8524C131.387 95.7884 131.442 95.7335 131.506 95.6908C131.57 95.648 131.642 95.6184 131.717 95.6034C131.793 95.5885 131.87 95.5886 131.946 95.6038C133.08 95.8311 134.236 96.0374 135.38 96.217C135.525 96.2398 135.657 96.3168 135.748 96.4326C135.84 96.5484 135.884 96.6945 135.873 96.8416C135.861 96.9888 135.795 97.1263 135.687 97.2267C135.579 97.327 135.437 97.3829 135.29 97.3831ZM164.4 96.7626C164.255 96.7624 164.115 96.7083 164.008 96.6109C163.9 96.5134 163.833 96.3795 163.818 96.235C163.804 96.0904 163.843 95.9456 163.929 95.8286C164.015 95.7115 164.141 95.6306 164.283 95.6013C165.42 95.3674 166.563 95.1047 167.68 94.8208C167.831 94.7826 167.99 94.8059 168.124 94.8855C168.257 94.9651 168.353 95.0945 168.392 95.2453C168.43 95.396 168.407 95.5557 168.327 95.6894C168.248 95.823 168.119 95.9196 167.968 95.9579C166.833 96.2463 165.673 96.5129 164.519 96.7504C164.48 96.7585 164.44 96.7625 164.4 96.7626ZM127.267 95.7167C127.217 95.7166 127.168 95.7103 127.12 95.6978C125.981 95.4021 124.836 95.0784 123.715 94.7356C123.567 94.69 123.443 94.5873 123.37 94.45C123.297 94.3128 123.282 94.1522 123.327 94.0036C123.372 93.855 123.475 93.7304 123.612 93.6573C123.748 93.5842 123.909 93.5684 124.057 93.6136C125.162 93.9515 126.291 94.2707 127.414 94.5622C127.551 94.598 127.672 94.6829 127.751 94.8011C127.831 94.9192 127.865 95.0625 127.847 95.204C127.829 95.3456 127.761 95.4757 127.654 95.5701C127.547 95.6644 127.409 95.7165 127.267 95.7167ZM172.326 94.6826C172.186 94.6826 172.051 94.6326 171.945 94.5416C171.839 94.4507 171.769 94.3248 171.747 94.1866C171.726 94.0485 171.754 93.9072 171.827 93.7881C171.901 93.6691 172.014 93.5802 172.147 93.5374C173.251 93.1822 174.359 92.7967 175.438 92.3917C175.51 92.3646 175.587 92.352 175.664 92.3546C175.74 92.3572 175.816 92.375 175.886 92.4069C175.956 92.4388 176.019 92.4842 176.072 92.5405C176.124 92.5968 176.165 92.6629 176.192 92.7351C176.219 92.8073 176.232 92.8841 176.229 92.9611C176.226 93.0381 176.208 93.1138 176.177 93.1839C176.145 93.2541 176.099 93.3172 176.043 93.3698C175.987 93.4223 175.921 93.4633 175.849 93.4902C174.752 93.9019 173.627 94.2935 172.505 94.6544C172.447 94.6731 172.386 94.6826 172.326 94.6826ZM119.449 93.2634C119.379 93.2634 119.311 93.251 119.246 93.2269C118.142 92.8184 117.035 92.3808 115.955 91.9263C115.884 91.8966 115.819 91.8532 115.765 91.7984C115.71 91.7437 115.668 91.6788 115.638 91.6074C115.609 91.5361 115.594 91.4596 115.595 91.3825C115.595 91.3053 115.611 91.229 115.64 91.1579C115.67 91.0868 115.714 91.0223 115.768 90.968C115.823 90.9138 115.888 90.8709 115.959 90.8418C116.031 90.8127 116.107 90.798 116.184 90.7985C116.261 90.799 116.337 90.8147 116.408 90.8448C117.472 91.2926 118.563 91.7238 119.651 92.1264C119.78 92.1742 119.888 92.2658 119.957 92.3853C120.025 92.5047 120.049 92.6445 120.025 92.78C120.001 92.9155 119.93 93.0382 119.824 93.1266C119.719 93.2149 119.586 93.2634 119.449 93.2634ZM179.973 91.7402C179.839 91.7403 179.709 91.6944 179.605 91.6101C179.501 91.5258 179.429 91.4083 179.401 91.2771C179.372 91.1459 179.39 91.009 179.45 90.8892C179.511 90.7694 179.61 90.674 179.732 90.6188C180.79 90.1412 181.845 89.6321 182.87 89.1057C182.939 89.0704 183.014 89.0491 183.09 89.0428C183.167 89.0365 183.244 89.0454 183.317 89.069C183.39 89.0926 183.458 89.1304 183.517 89.1803C183.576 89.2302 183.624 89.2912 183.659 89.3598C183.694 89.4284 183.715 89.5032 183.721 89.5801C183.728 89.6569 183.719 89.7342 183.695 89.8075C183.671 89.8809 183.634 89.9489 183.584 90.0075C183.534 90.0662 183.473 90.1145 183.404 90.1496C182.362 90.6849 181.289 91.2026 180.214 91.6882C180.138 91.7225 180.056 91.7402 179.973 91.7402ZM111.92 90.028C111.83 90.0279 111.742 90.0073 111.661 89.9676C110.604 89.4463 109.548 88.8954 108.523 88.3303C108.386 88.2554 108.286 88.1293 108.242 87.9799C108.199 87.8305 108.217 87.67 108.292 87.5337C108.366 87.3974 108.492 87.2964 108.641 87.2531C108.791 87.2097 108.951 87.2274 109.087 87.3024C110.097 87.859 111.137 88.4016 112.178 88.915C112.297 88.9735 112.392 89.0705 112.449 89.1903C112.506 89.31 112.52 89.4454 112.49 89.5745C112.46 89.7035 112.387 89.8186 112.284 89.9009C112.18 89.9832 112.052 90.028 111.92 90.028ZM187.239 87.9493C187.11 87.9494 186.985 87.9071 186.883 87.8289C186.781 87.7507 186.707 87.6409 186.673 87.5166C186.639 87.3923 186.647 87.2603 186.696 87.141C186.745 87.0217 186.831 86.9218 186.942 86.8566C187.901 86.2935 188.877 85.6987 189.928 85.0382C189.993 84.9972 190.066 84.9694 190.142 84.9565C190.218 84.9436 190.295 84.9458 190.37 84.963C190.445 84.9801 190.516 85.0119 190.579 85.0566C190.642 85.1012 190.695 85.1578 190.736 85.2231C190.777 85.2883 190.804 85.361 190.817 85.437C190.83 85.513 190.828 85.5908 190.811 85.6659C190.793 85.741 190.762 85.812 190.717 85.8748C190.672 85.9376 190.616 85.991 190.551 86.0319C189.49 86.6987 188.503 87.2996 187.534 87.8686C187.445 87.9214 187.343 87.9493 187.239 87.9493ZM104.774 86.0157C104.663 86.0158 104.554 85.9841 104.461 85.9245C103.465 85.2918 102.475 84.6289 101.517 83.954C101.454 83.9097 101.401 83.8534 101.359 83.7883C101.318 83.7233 101.29 83.6507 101.277 83.5748C101.264 83.4989 101.266 83.4212 101.282 83.346C101.299 83.2709 101.331 83.1997 101.375 83.1367C101.419 83.0737 101.475 83.0201 101.54 82.9788C101.605 82.9376 101.678 82.9096 101.753 82.8964C101.829 82.8831 101.907 82.885 101.982 82.9019C102.057 82.9187 102.128 82.9502 102.191 82.9945C103.133 83.6587 104.108 84.3111 105.088 84.9338C105.195 85.0018 105.277 85.1029 105.322 85.2218C105.367 85.3407 105.372 85.4709 105.336 85.593C105.301 85.715 105.227 85.8222 105.125 85.8984C105.024 85.9747 104.9 86.0158 104.774 86.0157ZM194.173 83.5733C194.047 83.5734 193.924 83.5328 193.823 83.4577C193.722 83.3825 193.648 83.2768 193.612 83.1561C193.575 83.0353 193.579 82.9061 193.622 82.7875C193.664 82.6689 193.744 82.5673 193.849 82.4976C194.836 81.8427 195.834 81.1714 196.766 80.5435C196.83 80.5005 196.901 80.4706 196.977 80.4553C197.052 80.4401 197.129 80.4398 197.205 80.4546C197.28 80.4694 197.352 80.499 197.416 80.5415C197.48 80.5841 197.535 80.639 197.578 80.7029C197.621 80.7668 197.651 80.8386 197.666 80.9141C197.682 80.9896 197.682 81.0673 197.667 81.1429C197.652 81.2185 197.623 81.2904 197.58 81.3546C197.538 81.4188 197.483 81.474 197.419 81.5169C196.486 82.146 195.486 82.8187 194.495 83.4757C194.4 83.5394 194.288 83.5733 194.173 83.5733ZM271.262 81.4238C271.182 81.4239 271.103 81.4075 271.029 81.3756C270.955 81.3436 270.889 81.2969 270.835 81.2382C270.053 80.4016 269.222 79.5821 268.366 78.8025C268.309 78.7507 268.263 78.6882 268.23 78.6185C268.198 78.5488 268.179 78.4733 268.175 78.3964C268.172 78.3195 268.183 78.2425 268.209 78.1701C268.235 78.0976 268.275 78.0309 268.327 77.9739C268.379 77.917 268.441 77.8707 268.511 77.8379C268.58 77.8051 268.655 77.7863 268.732 77.7826C268.809 77.779 268.886 77.7905 268.958 77.8166C269.031 77.8426 269.097 77.8827 269.154 77.9345C270.033 78.7351 270.886 79.5769 271.689 80.4363C271.767 80.5198 271.819 80.6243 271.839 80.737C271.858 80.8497 271.844 80.9656 271.799 81.0705C271.754 81.1755 271.679 81.2648 271.583 81.3276C271.488 81.3903 271.376 81.4238 271.262 81.4238ZM98.1135 81.2381C97.9799 81.2382 97.8503 81.1924 97.7464 81.1082C96.8284 80.3667 95.9198 79.5944 95.0458 78.8127C94.9301 78.7091 94.8602 78.5637 94.8515 78.4084C94.8428 78.2532 94.8959 78.1008 94.9993 77.9848C95.1027 77.8688 95.2477 77.7987 95.4027 77.7898C95.5576 77.781 95.7097 77.8341 95.8256 77.9376C96.685 78.7062 97.5785 79.4657 98.4813 80.1949C98.5756 80.2711 98.6441 80.3747 98.6771 80.4915C98.7102 80.6083 98.7063 80.7325 98.6659 80.8469C98.6255 80.9614 98.5508 81.0605 98.4518 81.1305C98.3529 81.2006 98.2347 81.2382 98.1135 81.2381ZM200.983 79.0024C200.857 79.0025 200.735 78.9621 200.634 78.887C200.533 78.8119 200.458 78.7063 200.422 78.5857C200.386 78.4651 200.389 78.3359 200.432 78.2173C200.474 78.0988 200.554 77.9971 200.658 77.9273C201.751 77.1999 202.715 76.5676 203.605 75.9943C203.67 75.9527 203.742 75.9242 203.818 75.9105C203.894 75.8969 203.971 75.8983 204.046 75.9146C204.122 75.931 204.193 75.9621 204.256 76.006C204.319 76.05 204.373 76.1059 204.414 76.1707C204.456 76.2355 204.484 76.3079 204.498 76.3837C204.512 76.4595 204.51 76.5373 204.494 76.6125C204.478 76.6878 204.447 76.7591 204.403 76.8224C204.359 76.8856 204.303 76.9396 204.238 76.9813C203.353 77.5512 202.394 78.1803 201.307 78.9043C201.211 78.9683 201.098 79.0025 200.983 79.0024ZM20.0084 77.1851C19.8595 77.185 19.7163 77.128 19.6078 77.0258C19.4994 76.9235 19.4339 76.7838 19.4247 76.6349C19.3895 76.0665 19.3716 75.4875 19.3716 74.914C19.3716 74.2945 19.3924 73.6649 19.4336 73.0429C19.4438 72.8877 19.5152 72.7429 19.632 72.6404C19.6899 72.5897 19.7571 72.5508 19.8299 72.5261C19.9027 72.5014 19.9797 72.4913 20.0564 72.4964C20.1331 72.5015 20.2081 72.5217 20.277 72.5558C20.346 72.5899 20.4075 72.6373 20.4582 72.6953C20.5088 72.7532 20.5476 72.8206 20.5722 72.8935C20.5969 72.9665 20.607 73.0436 20.6019 73.1205C20.5625 73.7168 20.5425 74.3202 20.5425 74.914C20.5425 75.4634 20.5596 76.0179 20.5934 76.5622C20.603 76.7174 20.5506 76.8702 20.4478 76.9868C20.3451 77.1034 20.2003 77.1743 20.0453 77.184C20.033 77.1847 20.0206 77.1851 20.0084 77.1851ZM265.137 75.9843C265.012 75.9844 264.891 75.9443 264.79 75.87C263.868 75.1895 262.903 74.5319 261.922 73.9154C261.791 73.8327 261.698 73.7011 261.663 73.5495C261.629 73.3979 261.656 73.2388 261.738 73.1071C261.82 72.9754 261.952 72.8819 262.103 72.8471C262.254 72.8123 262.413 72.8392 262.545 72.9217C263.55 73.5536 264.539 74.2277 265.485 74.9255C265.584 74.9987 265.658 75.1016 265.695 75.2193C265.733 75.337 265.732 75.4636 265.694 75.581C265.655 75.6984 265.581 75.8006 265.481 75.873C265.381 75.9455 265.26 75.9844 265.137 75.9843ZM92.0496 75.7211C91.9719 75.7212 91.8949 75.7058 91.8232 75.6756C91.7515 75.6455 91.6866 75.6014 91.6321 75.5457C90.8525 74.7512 90.0569 73.9113 89.1999 72.9779C89.0949 72.8634 89.0396 72.7118 89.0462 72.5565C89.0527 72.4011 89.1205 72.2547 89.2347 72.1495C89.3489 72.0442 89.5002 71.9887 89.6552 71.9951C89.8103 72.0015 89.9565 72.0693 90.0616 72.1837C90.9098 73.1074 91.6966 73.9381 92.4671 74.7233C92.548 74.8058 92.6028 74.9103 92.6245 75.0238C92.6463 75.1373 92.6342 75.2547 92.5896 75.3613C92.545 75.4679 92.4699 75.5589 92.3739 75.6229C92.2778 75.687 92.165 75.7211 92.0496 75.7211ZM207.905 74.6042C207.777 74.6043 207.652 74.5622 207.55 74.4842C207.447 74.4063 207.374 74.2969 207.34 74.1728C207.306 74.0488 207.313 73.917 207.362 73.7978C207.41 73.6785 207.496 73.5784 207.606 73.5129C208.659 72.8881 209.694 72.3002 210.681 71.7655C210.749 71.7288 210.823 71.7058 210.9 71.6979C210.976 71.6899 211.054 71.6972 211.127 71.7192C211.201 71.7412 211.27 71.7775 211.329 71.8261C211.389 71.8747 211.439 71.9346 211.475 72.0024C211.512 72.0702 211.535 72.1446 211.542 72.2212C211.55 72.2979 211.543 72.3753 211.521 72.4492C211.499 72.523 211.463 72.5918 211.414 72.6515C211.366 72.7113 211.306 72.7609 211.238 72.7975C210.264 73.325 209.243 73.9053 208.203 74.5223C208.113 74.5759 208.01 74.6042 207.905 74.6042ZM258.151 71.7072C258.061 71.7072 257.971 71.6859 257.89 71.645C256.863 71.1297 255.8 70.643 254.733 70.1983C254.662 70.1687 254.597 70.1254 254.543 70.0708C254.489 70.0163 254.446 69.9516 254.416 69.8804C254.387 69.8092 254.372 69.7329 254.372 69.6559C254.372 69.5788 254.388 69.5026 254.417 69.4314C254.447 69.3603 254.49 69.2957 254.544 69.2413C254.599 69.1869 254.663 69.1438 254.734 69.1144C254.805 69.085 254.882 69.07 254.958 69.0701C255.035 69.0702 255.111 69.0855 255.182 69.115C256.275 69.5702 257.362 70.0685 258.414 70.596C258.532 70.6552 258.626 70.7525 258.682 70.8723C258.738 70.992 258.752 71.1271 258.721 71.2557C258.691 71.3843 258.618 71.4988 258.515 71.5808C258.411 71.6627 258.283 71.7073 258.151 71.7072ZM215.149 70.7737C215.016 70.7738 214.886 70.7279 214.782 70.6439C214.678 70.5598 214.605 70.4425 214.577 70.3116C214.549 70.1807 214.566 70.0439 214.626 69.9242C214.686 69.8044 214.785 69.7087 214.906 69.6532C216.004 69.1526 217.104 68.6905 218.177 68.2798C218.322 68.2245 218.483 68.2291 218.624 68.2927C218.766 68.3562 218.877 68.4735 218.932 68.6186C218.987 68.7638 218.983 68.9251 218.92 69.067C218.857 69.2089 218.74 69.3199 218.595 69.3756C217.545 69.7777 216.467 70.2303 215.392 70.7208C215.316 70.7557 215.233 70.7737 215.149 70.7737ZM86.5078 69.6677C86.4243 69.6678 86.3418 69.65 86.2657 69.6155C86.1897 69.581 86.1219 69.5305 86.067 69.4675C85.379 68.6799 84.6827 67.8755 84.0094 67.0976L83.7595 66.8088C83.7091 66.7506 83.6706 66.6831 83.6463 66.61C83.622 66.5369 83.6122 66.4597 83.6177 66.3829C83.6231 66.306 83.6436 66.231 83.678 66.1621C83.7124 66.0932 83.76 66.0318 83.8181 65.9813C83.8762 65.9308 83.9436 65.8923 84.0166 65.8679C84.0895 65.8436 84.1665 65.8339 84.2432 65.8393C84.3199 65.8448 84.3948 65.8653 84.4636 65.8998C84.5324 65.9343 84.5937 65.982 84.6441 66.0402L84.8941 66.3291C85.5665 67.106 86.2618 67.9093 86.9481 68.6948C87.0221 68.7796 87.0703 68.8839 87.0867 68.9954C87.1032 69.1069 87.0872 69.2207 87.0408 69.3234C86.9943 69.426 86.9194 69.513 86.8248 69.5741C86.7303 69.6352 86.6202 69.6677 86.5078 69.6677ZM20.7099 69.0329C20.6217 69.0329 20.5346 69.0129 20.4551 68.9745C20.3757 68.936 20.306 68.8801 20.2511 68.8109C20.1962 68.7417 20.1577 68.6609 20.1383 68.5747C20.119 68.4885 20.1193 68.399 20.1393 68.3129C20.4113 67.1478 20.7516 65.9998 21.1582 64.8748C21.2111 64.7286 21.3198 64.6094 21.4604 64.5435C21.601 64.4776 21.7619 64.4704 21.9079 64.5233C22.0538 64.5762 22.1728 64.6851 22.2387 64.8259C22.3045 64.9667 22.3119 65.1279 22.2591 65.2742C21.8682 66.3558 21.5411 67.4595 21.2795 68.5796C21.2495 68.7084 21.1769 68.8233 21.0735 68.9056C20.9701 68.9879 20.842 69.0328 20.7099 69.0329ZM250.556 68.6434C250.497 68.6434 250.438 68.6344 250.382 68.6167C249.282 68.2732 248.156 67.9631 247.033 67.6949C246.958 67.6771 246.888 67.6447 246.826 67.5995C246.763 67.5543 246.71 67.4973 246.67 67.4316C246.63 67.366 246.603 67.2931 246.591 67.217C246.578 67.1409 246.581 67.0631 246.599 66.9882C246.617 66.9132 246.649 66.8425 246.695 66.7801C246.74 66.7177 246.797 66.6648 246.862 66.6245C246.928 66.5841 247.001 66.5571 247.077 66.545C247.153 66.5329 247.23 66.5359 247.305 66.5538C248.453 66.8281 249.606 67.1454 250.73 67.4968C250.864 67.5385 250.978 67.6269 251.052 67.7458C251.127 67.8647 251.156 68.0064 251.135 68.145C251.114 68.2837 251.044 68.4102 250.938 68.5016C250.831 68.5931 250.696 68.6434 250.556 68.6434ZM222.834 67.9531C222.692 67.953 222.555 67.9013 222.448 67.8077C222.342 67.714 222.273 67.5848 222.254 67.444C222.235 67.3031 222.268 67.1602 222.347 67.0419C222.425 66.9235 222.544 66.8377 222.681 66.8004C223.814 66.4913 224.98 66.2213 226.146 65.9978C226.221 65.9833 226.299 65.9839 226.374 65.9995C226.45 66.015 226.521 66.0453 226.585 66.0886C226.648 66.1318 226.703 66.1872 226.745 66.2516C226.787 66.3159 226.816 66.388 226.831 66.4637C226.845 66.5393 226.845 66.6171 226.829 66.6925C226.814 66.768 226.783 66.8396 226.74 66.9033C226.697 66.9671 226.642 67.0216 226.578 67.064C226.513 67.1063 226.441 67.1355 226.366 67.15C225.23 67.3679 224.093 67.6311 222.988 67.9324C222.938 67.9461 222.886 67.9531 222.834 67.9531ZM242.571 66.8309C242.543 66.8309 242.514 66.8289 242.487 66.8249C241.344 66.6597 240.182 66.5324 239.035 66.4466C238.958 66.4409 238.884 66.4202 238.815 66.3855C238.746 66.3508 238.685 66.3029 238.635 66.2445C238.585 66.1861 238.546 66.1184 238.522 66.0452C238.498 65.972 238.489 65.8948 238.495 65.818C238.5 65.7411 238.521 65.6661 238.556 65.5973C238.59 65.5285 238.638 65.4673 238.697 65.417C238.755 65.3668 238.823 65.3285 238.896 65.3044C238.969 65.2804 239.046 65.271 239.122 65.2768C240.296 65.3646 241.484 65.4947 242.654 65.6638C242.8 65.685 242.933 65.7609 243.026 65.8763C243.119 65.9917 243.165 66.1381 243.154 66.286C243.144 66.4338 243.078 66.5722 242.969 66.6733C242.861 66.7744 242.719 66.8307 242.571 66.8309ZM230.891 66.5083C230.741 66.5081 230.596 66.4498 230.487 66.3454C230.378 66.2411 230.314 66.0987 230.307 65.9479C230.3 65.7972 230.352 65.6496 230.451 65.5359C230.55 65.4222 230.689 65.3512 230.839 65.3375C232.01 65.2311 233.204 65.1659 234.388 65.1436C234.392 65.1435 234.395 65.1435 234.399 65.1435C234.553 65.1436 234.701 65.2046 234.811 65.3135C234.92 65.4223 234.983 65.5701 234.984 65.7247C234.986 65.8793 234.926 66.0282 234.818 66.139C234.711 66.2498 234.564 66.3136 234.41 66.3165C233.253 66.3383 232.088 66.402 230.945 66.5058C230.927 66.5075 230.909 66.5083 230.891 66.5083ZM81.1175 63.4791C81.0348 63.4792 80.953 63.4617 80.8775 63.4278C80.802 63.3939 80.7346 63.3443 80.6797 63.2823C79.8279 62.3223 79.0586 61.4735 78.3277 60.6874C78.2219 60.5736 78.1655 60.4223 78.171 60.2669C78.1765 60.1114 78.2434 59.9645 78.357 59.8584C78.4706 59.7524 78.6217 59.6959 78.7768 59.7014C78.932 59.7069 79.0786 59.774 79.1845 59.8878C79.9216 60.6806 80.697 61.536 81.5549 62.5028C81.6298 62.5873 81.6788 62.6917 81.696 62.8035C81.7131 62.9152 81.6976 63.0296 81.6514 63.1327C81.6052 63.2359 81.5302 63.3234 81.4355 63.3849C81.3408 63.4464 81.2303 63.4791 81.1175 63.4791ZM23.6363 61.39C23.5346 61.3899 23.4348 61.3633 23.3466 61.3127C23.2583 61.2622 23.1847 61.1896 23.133 61.1019C23.0812 61.0143 23.0532 60.9146 23.0515 60.8128C23.0499 60.711 23.0747 60.6105 23.1235 60.5212C23.698 59.4727 24.3323 58.4582 25.0233 57.4829C25.1132 57.3561 25.2498 57.2702 25.4029 57.2443C25.556 57.2183 25.7131 57.2543 25.8397 57.3444C25.9663 57.4345 26.0519 57.5712 26.0779 57.7246C26.1038 57.878 26.0678 58.0354 25.9779 58.1623C25.313 59.1006 24.7028 60.0767 24.1501 61.0855C24.0996 61.1778 24.0253 61.2547 23.9348 61.3083C23.8444 61.3619 23.7413 61.3901 23.6363 61.39ZM75.4849 57.5186C75.3328 57.5188 75.1866 57.4595 75.0775 57.3533C74.2117 56.5128 73.3502 55.7193 72.5172 54.9947C72.459 54.9442 72.4114 54.8828 72.377 54.8139C72.3426 54.7449 72.322 54.6699 72.3166 54.593C72.3111 54.5161 72.3209 54.4389 72.3452 54.3658C72.3696 54.2927 72.4081 54.2251 72.4585 54.1669C72.5089 54.1087 72.5703 54.061 72.6391 54.0266C72.7079 53.9922 72.7829 53.9717 72.8596 53.9663C72.9363 53.9609 73.0134 53.9707 73.0863 53.9952C73.1593 54.0196 73.2267 54.0582 73.2848 54.1088C74.1339 54.8474 75.0112 55.6555 75.8923 56.5108C75.976 56.5921 76.0336 56.6966 76.0577 56.8108C76.0818 56.9251 76.0713 57.044 76.0276 57.1523C75.9838 57.2605 75.9087 57.3532 75.8121 57.4185C75.7154 57.4838 75.6014 57.5186 75.4849 57.5186ZM28.4998 54.8117C28.3845 54.8116 28.2718 54.7776 28.1758 54.7136C28.0798 54.6497 28.0047 54.5588 27.9601 54.4524C27.9154 54.3459 27.9031 54.2286 27.9247 54.1151C27.9463 54.0017 28.0009 53.8972 28.0816 53.8147C28.9176 52.9593 29.8046 52.1554 30.7378 51.4076C30.7979 51.3595 30.8668 51.3238 30.9407 51.3024C31.0145 51.281 31.0919 51.2744 31.1683 51.283C31.2447 51.2915 31.3186 51.3151 31.386 51.3523C31.4533 51.3895 31.5126 51.4396 31.5606 51.4997C31.6086 51.5599 31.6443 51.629 31.6657 51.703C31.687 51.777 31.6936 51.8545 31.6851 51.931C31.6765 52.0076 31.653 52.0817 31.6159 52.1491C31.5788 52.2166 31.5287 52.276 31.4687 52.3241C30.5726 53.0422 29.7209 53.8141 28.9181 54.6355C28.8637 54.6913 28.7986 54.7357 28.7267 54.766C28.6549 54.7962 28.5777 54.8118 28.4998 54.8117ZM69.2305 52.23C69.1089 52.23 68.9902 52.1919 68.8913 52.121C67.9319 51.4361 66.9564 50.8012 65.9916 50.234C65.9253 50.195 65.8673 50.1434 65.8209 50.0819C65.7746 50.0205 65.7407 49.9505 65.7214 49.8759C65.702 49.8014 65.6975 49.7238 65.708 49.6475C65.7186 49.5712 65.7441 49.4977 65.783 49.4313C65.8219 49.3648 65.8735 49.3067 65.9348 49.2603C65.9961 49.2138 66.066 49.1799 66.1404 49.1605C66.2148 49.1411 66.2923 49.1366 66.3684 49.1471C66.4446 49.1577 66.5179 49.1832 66.5842 49.2222C67.5786 49.8068 68.5835 50.4607 69.5708 51.1656C69.6719 51.2378 69.7475 51.3403 69.7866 51.4584C69.8258 51.5764 69.8264 51.7038 69.7886 51.8223C69.7507 51.9407 69.6762 52.0441 69.5759 52.1173C69.4756 52.1906 69.3547 52.2301 69.2305 52.23ZM34.9866 49.8381C34.8571 49.8382 34.7311 49.7953 34.6285 49.716C34.5259 49.6367 34.4525 49.5255 34.4197 49.3999C34.3869 49.2743 34.3967 49.1414 34.4474 49.0219C34.4981 48.9024 34.5869 48.8032 34.7 48.7397C35.742 48.1557 36.817 47.6329 37.9196 47.1739C38.0629 47.1143 38.224 47.1142 38.3674 47.1736C38.5108 47.233 38.6249 47.347 38.6844 47.4905C38.744 47.6341 38.7442 47.7955 38.6851 47.9392C38.626 48.083 38.5123 48.1973 38.3691 48.2571C37.3085 48.6986 36.2745 49.2015 35.2722 49.7632C35.185 49.8123 35.0867 49.8381 34.9866 49.8381ZM62.1038 48.2173C62.0266 48.2173 61.9502 48.2019 61.879 48.1721C61.3146 47.9367 60.7379 47.7156 60.1652 47.5149C59.663 47.339 59.1473 47.1748 58.6324 47.0267C58.5585 47.0054 58.4895 46.9698 58.4294 46.9218C58.3692 46.8739 58.3191 46.8145 58.2818 46.7471C58.2446 46.6797 58.2209 46.6057 58.2122 46.5291C58.2036 46.4526 58.21 46.3751 58.2312 46.301C58.2524 46.227 58.288 46.1579 58.3359 46.0976C58.3838 46.0373 58.443 45.9871 58.5103 45.9498C58.5775 45.9124 58.6515 45.8888 58.7279 45.8801C58.8043 45.8714 58.8816 45.8778 58.9555 45.8991C59.4916 46.0533 60.0286 46.2243 60.5516 46.4076C61.1458 46.6157 61.7438 46.845 62.329 47.0891C62.454 47.1412 62.5571 47.2352 62.6207 47.3549C62.6844 47.4746 62.7046 47.6127 62.6781 47.7457C62.6515 47.8787 62.5798 47.9984 62.4751 48.0844C62.3704 48.1704 62.2391 48.2173 62.1038 48.2173ZM42.5872 46.8326C42.4444 46.8325 42.3065 46.78 42.1996 46.6851C42.0926 46.5902 42.024 46.4594 42.0066 46.3173C41.9892 46.1752 42.0243 46.0317 42.1052 45.9137C42.1861 45.7957 42.3073 45.7115 42.4459 45.6768C43.6031 45.3877 44.7752 45.1622 45.9569 45.0012C46.0331 44.9908 46.1106 44.9955 46.1849 45.0151C46.2593 45.0348 46.3291 45.0689 46.3903 45.1155C46.4515 45.1621 46.5029 45.2204 46.5416 45.2869C46.5804 45.3535 46.6056 45.4271 46.616 45.5034C46.6263 45.5797 46.6216 45.6574 46.602 45.7319C46.5824 45.8064 46.5483 45.8763 46.5017 45.9376C46.4552 45.9989 46.397 46.0504 46.3306 46.0892C46.2641 46.1279 46.1907 46.1532 46.1145 46.1636C44.9752 46.3188 43.8452 46.5363 42.7295 46.815C42.683 46.8267 42.6352 46.8326 42.5872 46.8326ZM54.2099 46.1143C54.1856 46.1143 54.1612 46.1128 54.1371 46.1098C52.9964 45.9684 51.8488 45.8911 50.6996 45.8781C50.5444 45.8763 50.3962 45.8128 50.2877 45.7016C50.1792 45.5903 50.1193 45.4405 50.121 45.285C50.1228 45.1295 50.1861 44.981 50.2971 44.8723C50.4081 44.7636 50.5576 44.7034 50.7128 44.7051C51.9059 44.7185 53.0973 44.7988 54.2814 44.9456C54.4292 44.964 54.5644 45.0382 54.6596 45.153C54.7548 45.2678 54.8027 45.4146 54.7936 45.5636C54.7845 45.7125 54.719 45.8524 54.6106 45.9547C54.5022 46.057 54.3589 46.1141 54.2099 46.1143Z" fill="#D583B4"/>
<path d="M293.985 70.4512L285.439 85.6173L284.069 88.0474L282.208 85.6173L277.341 79.2666L293.985 70.4512Z" fill="#CA5199"/>
<path d="M293.984 70.4512L274.43 76.6944L267.104 72.3422L293.984 70.4512Z" fill="#D583B4"/>
<path d="M293.984 70.4512L277.342 79.2668L273.461 84.0837L274.43 76.6944L293.984 70.4512Z" fill="#547B97"/>
<path d="M200.738 66.5972L198.783 78.6865L198.408 81.0068C198.408 82.8033 194.559 106.47 192.565 106.47L161.038 84.748L126.049 108.955C124.056 108.955 121.96 83.4877 121.96 81.6912L121.821 78.6865L121.262 66.6324L126.887 61.7857L158.789 34.2965C159.448 33.8353 160.233 33.5879 161.038 33.5879C161.843 33.5879 162.629 33.8353 163.287 34.2965L195.159 61.7857L200.738 66.5972Z" fill="#547B97"/>
<path d="M185.99 66.352V103.221H136.01V55.707H175.047L185.99 66.352Z" fill="white"/>
<path d="M185.99 66.7148V67.9952H173.7V55.707L174.974 55.7546L185.99 66.7148Z" fill="#2C447D"/>
<path d="M185.99 66.3567H174.519V55.707L185.99 66.3567Z" fill="white"/>
<path d="M162.047 91.844L180.021 73.222C184.741 68.3314 191.479 65.5371 198.55 65.5371C200.211 65.5371 201.557 66.6482 201.557 68.0187V117.792C201.557 119.162 199.312 121.243 197.651 121.243H187.438L162.047 94.9364C161.845 94.7344 161.685 94.4937 161.575 94.2282C161.466 93.9628 161.41 93.6779 161.41 93.3902C161.41 93.1025 161.466 92.8176 161.575 92.5522C161.685 92.2868 161.845 92.046 162.047 91.844Z" fill="#98D1FA"/>
<path d="M160.76 91.828L142.419 73.2174C137.602 68.3298 130.727 65.5371 123.511 65.5371C121.817 65.5371 120.443 66.6475 120.443 68.0172V118.058C120.443 119.428 122.41 121.243 124.104 121.243L134.85 121.209L160.76 94.9185C160.966 94.7166 161.129 94.476 161.241 94.2107C161.352 93.9455 161.41 93.6608 161.41 93.3732C161.41 93.0857 161.352 92.801 161.241 92.5357C161.129 92.2705 160.966 92.0299 160.76 91.828Z" fill="#98D1FA"/>
<path d="M201.557 107.709V118.361C201.557 119.953 199.939 121.243 197.944 121.243H124.056C122.061 121.243 120.443 119.953 120.443 118.361V107.709L158.749 83.3695C159.388 82.9744 160.122 82.7581 160.873 82.7431C161.71 82.7125 162.538 82.9305 163.251 83.3695L201.557 107.709Z" fill="#BFEEFF"/>
<path d="M120.443 102.902L154.195 85.1973L154.855 85.8583L120.443 107.316V102.902Z" fill="#20284E"/>
<path d="M201.557 102.902L168.608 85.1973L167.964 85.8583L201.557 107.316V102.902Z" fill="#20284E"/>
<path d="M161 71.2715C159.153 71.2715 157.382 72.0483 156.075 73.431C154.769 74.8136 154.036 76.689 154.036 78.6444H167.964C167.964 77.6761 167.784 76.7174 167.434 75.8229C167.084 74.9284 166.571 74.1156 165.925 73.4309C165.278 72.7463 164.51 72.2032 163.665 71.8327C162.82 71.4622 161.915 71.2715 161 71.2715Z" fill="#C8DEF4"/>
<path d="M161 71.2713C163.036 71.2713 164.687 69.6208 164.687 67.5849C164.687 65.5489 163.036 63.8984 161 63.8984C158.964 63.8984 157.313 65.5489 157.313 67.5849C157.313 69.6208 158.964 71.2713 161 71.2713Z" fill="#C8DEF4"/>
</svg>
