<svg width="16" height="16" viewBox="0 0 16 16" fill="none" xmlns="http://www.w3.org/2000/svg">
<path d="M15.0019 6.94738V8.1193C14.9546 8.14237 14.9731 8.18736 14.9696 8.22311C14.8439 9.44348 14.4644 10.5762 13.7792 11.5959C12.5335 13.4518 10.8079 14.5695 8.59554 14.9259C8.42483 14.9536 8.2495 14.9432 8.08456 15.0067H6.88264C6.75807 14.9444 6.61965 14.9605 6.48816 14.9409C4.85716 14.7044 3.43378 14.0308 2.26647 12.8681C0.499357 11.1079 -0.237708 8.97056 0.0668069 6.49637C0.253669 4.97264 0.886922 3.63231 1.92043 2.49615C3.33573 0.941275 5.10285 0.103857 7.20331 0.00811925C8.68436 -0.0587818 10.0766 0.287259 11.3396 1.0647C13.3398 2.2966 14.5405 4.0787 14.92 6.40409C14.95 6.58404 14.9419 6.76974 15.0007 6.94623L15.0019 6.94738ZM11.2601 5.3406C11.2601 5.07415 11.0974 4.8769 10.8725 4.8423C10.6868 4.81346 10.5449 4.8919 10.4157 5.02109C9.11922 6.32105 7.81926 7.61754 6.52392 8.91866C6.42933 9.01439 6.38089 9.03285 6.27938 8.92442C6.03369 8.66028 5.77186 8.40997 5.51579 8.15506C5.19166 7.83093 4.86869 7.5045 4.54111 7.18268C4.37847 7.02235 4.16277 6.99352 3.97591 7.09387C3.79943 7.18845 3.71061 7.37993 3.74291 7.58986C3.76136 7.71213 3.83403 7.8021 3.91823 7.8863C4.61262 8.57953 5.30701 9.27392 6.00024 9.96831C6.27592 10.244 6.5193 10.244 6.79498 9.96831C7.48591 9.27853 8.17568 8.58761 8.86661 7.89668C9.60252 7.16077 10.3373 6.42486 11.0732 5.69125C11.1805 5.58398 11.2612 5.46633 11.2566 5.34175L11.2601 5.3406Z" fill="#4BAD4F"/>
<path d="M11.2593 5.34128C11.2639 5.46584 11.1831 5.58348 11.0759 5.69074C10.3389 6.4254 9.60425 7.16122 8.86958 7.89589C8.17874 8.58673 7.48906 9.27757 6.79822 9.96726C6.52257 10.2429 6.27807 10.2417 6.00358 9.96726C5.30928 9.27411 4.61613 8.57981 3.92184 7.88551C3.83764 7.80132 3.76498 7.71251 3.74653 7.58911C3.71424 7.3792 3.80304 7.18775 3.9795 7.09318C4.16634 6.99284 4.38086 7.02167 4.54463 7.18198C4.87217 7.50376 5.1951 7.83015 5.51918 8.15423C5.77522 8.40912 6.03703 8.65939 6.28268 8.9235C6.38418 9.03191 6.43262 9.01346 6.52719 8.91773C7.82237 7.61679 9.12101 6.32045 10.4185 5.02066C10.5477 4.89149 10.6895 4.81306 10.8752 4.8419C11.1001 4.8765 11.2627 5.07371 11.2627 5.34013L11.2593 5.34128Z" fill="#FBFDFB"/>
</svg>
